<svg xmlns="http://www.w3.org/2000/svg" xmlns:xlink="http://www.w3.org/1999/xlink" contentStyleType="text/css" height="935px" preserveAspectRatio="none" style="width:2115px;height:935px;background:#FFFFFF;" version="1.1" viewBox="0 0 2115 935" width="2115px" zoomAndPan="magnify"><defs><filter height="1" id="b1ng27qun94qy20" width="1" x="0" y="0"><feFlood flood-color="#A0522D" result="flood"/><feComposite in="SourceGraphic" in2="flood" operator="over"/></filter><filter height="1" id="b1ng27qun94qy21" width="1" x="0" y="0"><feFlood flood-color="#9370DB" result="flood"/><feComposite in="SourceGraphic" in2="flood" operator="over"/></filter><filter height="1" id="b1ng27qun94qy22" width="1" x="0" y="0"><feFlood flood-color="#FEE599" result="flood"/><feComposite in="SourceGraphic" in2="flood" operator="over"/></filter><filter height="1" id="b1ng27qun94qy23" width="1" x="0" y="0"><feFlood flood-color="#E0FFFF" result="flood"/><feComposite in="SourceGraphic" in2="flood" operator="over"/></filter><filter height="1" id="b1ng27qun94qy24" width="1" x="0" y="0"><feFlood flood-color="#E2EFD9" result="flood"/><feComposite in="SourceGraphic" in2="flood" operator="over"/></filter><filter height="1" id="b1ng27qun94qy25" width="1" x="0" y="0"><feFlood flood-color="#7FFFD4" result="flood"/><feComposite in="SourceGraphic" in2="flood" operator="over"/></filter><filter height="1" id="b1ng27qun94qy26" width="1" x="0" y="0"><feFlood flood-color="#FFC0CB" result="flood"/><feComposite in="SourceGraphic" in2="flood" operator="over"/></filter></defs><g><rect fill="#DDDDDD" height="193.2656" id="_legend" rx="7.5" ry="7.5" style="stroke:#000000;stroke-width:1.0;" width="395" x="853" y="12"/><text fill="#000000" font-family="Arial" font-size="14" font-weight="bold" lengthAdjust="spacing" textLength="51" x="863" y="31.9951">Object</text><text fill="#000000" font-family="Arial" font-size="14" font-weight="bold" lengthAdjust="spacing" textLength="51" x="987" y="31.9951">Colors</text><text fill="#000000" font-family="Arial" font-size="14" lengthAdjust="spacing" textLength="65" x="862" y="48.292">Hardware</text><text fill="#000000" filter="url(#b1ng27qun94qy20)" font-family="Arial" font-size="14" lengthAdjust="spacing" textLength="140" x="982" y="48.292">&#160;&#160;&#160;&#160;&#160;&#160;&#160;&#160;&#160;&#160;&#160;&#160;&#160;&#160;&#160;&#160;&#160;&#160;&#160;&#160;&#160;&#160;&#160;&#160;&#160;&#160;&#160;&#160;&#160;&#160;&#160;&#160;&#160;&#160;&#160;</text><text fill="#000000" font-family="Arial" font-size="14" lengthAdjust="spacing" textLength="51" x="862" y="64.5889">System</text><text fill="#000000" filter="url(#b1ng27qun94qy21)" font-family="Arial" font-size="14" lengthAdjust="spacing" textLength="140" x="982" y="64.5889">&#160;&#160;&#160;&#160;&#160;&#160;&#160;&#160;&#160;&#160;&#160;&#160;&#160;&#160;&#160;&#160;&#160;&#160;&#160;&#160;&#160;&#160;&#160;&#160;&#160;&#160;&#160;&#160;&#160;&#160;&#160;&#160;&#160;&#160;&#160;</text><text fill="#000000" font-family="Arial" font-size="14" lengthAdjust="spacing" textLength="36" x="862" y="80.8857">Layer</text><text fill="#000000" filter="url(#b1ng27qun94qy22)" font-family="Arial" font-size="14" lengthAdjust="spacing" textLength="140" x="982" y="80.8857">&#160;&#160;&#160;&#160;&#160;&#160;&#160;&#160;&#160;&#160;&#160;&#160;&#160;&#160;&#160;&#160;&#160;&#160;&#160;&#160;&#160;&#160;&#160;&#160;&#160;&#160;&#160;&#160;&#160;&#160;&#160;&#160;&#160;&#160;&#160;</text><text fill="#000000" font-family="Arial" font-size="14" lengthAdjust="spacing" textLength="82" x="862" y="97.1826">Component</text><text fill="#000000" filter="url(#b1ng27qun94qy23)" font-family="Arial" font-size="14" lengthAdjust="spacing" textLength="140" x="982" y="97.1826">&#160;&#160;&#160;&#160;&#160;&#160;&#160;&#160;&#160;&#160;&#160;&#160;&#160;&#160;&#160;&#160;&#160;&#160;&#160;&#160;&#160;&#160;&#160;&#160;&#160;&#160;&#160;&#160;&#160;&#160;&#160;&#160;&#160;&#160;&#160;</text><text fill="#000000" font-family="Arial" font-size="14" lengthAdjust="spacing" textLength="51" x="862" y="113.4795">Module</text><text fill="#000000" filter="url(#b1ng27qun94qy24)" font-family="Arial" font-size="14" lengthAdjust="spacing" textLength="140" x="982" y="113.4795">&#160;&#160;&#160;&#160;&#160;&#160;&#160;&#160;&#160;&#160;&#160;&#160;&#160;&#160;&#160;&#160;&#160;&#160;&#160;&#160;&#160;&#160;&#160;&#160;&#160;&#160;&#160;&#160;&#160;&#160;&#160;&#160;&#160;&#160;&#160;</text><text fill="#000000" font-family="Arial" font-size="14" lengthAdjust="spacing" textLength="27" x="862" y="129.7764">Unit</text><text fill="#000000" filter="url(#b1ng27qun94qy25)" font-family="Arial" font-size="14" lengthAdjust="spacing" textLength="140" x="982" y="129.7764">&#160;&#160;&#160;&#160;&#160;&#160;&#160;&#160;&#160;&#160;&#160;&#160;&#160;&#160;&#160;&#160;&#160;&#160;&#160;&#160;&#160;&#160;&#160;&#160;&#160;&#160;&#160;&#160;&#160;&#160;&#160;&#160;&#160;&#160;&#160;</text><text fill="#000000" font-family="Arial" font-size="14" lengthAdjust="spacing" textLength="28" x="862" y="146.0732">Tiny</text><text fill="#000000" filter="url(#b1ng27qun94qy26)" font-family="Arial" font-size="14" lengthAdjust="spacing" textLength="140" x="982" y="146.0732">&#160;&#160;&#160;&#160;&#160;&#160;&#160;&#160;&#160;&#160;&#160;&#160;&#160;&#160;&#160;&#160;&#160;&#160;&#160;&#160;&#160;&#160;&#160;&#160;&#160;&#160;&#160;&#160;&#160;&#160;&#160;&#160;&#160;&#160;&#160;</text><text fill="#000000" font-family="Arial" font-size="14" font-weight="bold" lengthAdjust="spacing" textLength="49" x="863" y="162.3701">Arrow</text><text fill="#000000" font-family="Arial" font-size="14" font-weight="bold" lengthAdjust="spacing" textLength="90" x="987" y="162.3701">Description</text><text fill="#000000" font-family="Arial" font-size="14" lengthAdjust="spacing" textLength="96" x="862" y="178.667">Solid Line (-&gt;)</text><text fill="#000000" font-family="Arial" font-size="14" lengthAdjust="spacing" textLength="147" x="986" y="178.667">Don't response value</text><text fill="#000000" font-family="Arial" font-size="14" lengthAdjust="spacing" textLength="116" x="862" y="194.9639">Dotted Line (--&gt;)</text><text fill="#000000" font-family="Arial" font-size="14" lengthAdjust="spacing" textLength="111" x="986" y="194.9639">Response value</text><line style="stroke:#000000;stroke-width:1.0;" x1="858" x2="1243" y1="19" y2="19"/><line style="stroke:#000000;stroke-width:1.0;" x1="858" x2="1243" y1="35.2969" y2="35.2969"/><line style="stroke:#000000;stroke-width:1.0;" x1="858" x2="1243" y1="51.5938" y2="51.5938"/><line style="stroke:#000000;stroke-width:1.0;" x1="858" x2="1243" y1="67.8906" y2="67.8906"/><line style="stroke:#000000;stroke-width:1.0;" x1="858" x2="1243" y1="84.1875" y2="84.1875"/><line style="stroke:#000000;stroke-width:1.0;" x1="858" x2="1243" y1="100.4844" y2="100.4844"/><line style="stroke:#000000;stroke-width:1.0;" x1="858" x2="1243" y1="116.7813" y2="116.7813"/><line style="stroke:#000000;stroke-width:1.0;" x1="858" x2="1243" y1="133.0781" y2="133.0781"/><line style="stroke:#000000;stroke-width:1.0;" x1="858" x2="1243" y1="149.375" y2="149.375"/><line style="stroke:#000000;stroke-width:1.0;" x1="858" x2="1243" y1="165.6719" y2="165.6719"/><line style="stroke:#000000;stroke-width:1.0;" x1="858" x2="1243" y1="181.9688" y2="181.9688"/><line style="stroke:#000000;stroke-width:1.0;" x1="858" x2="1243" y1="198.2656" y2="198.2656"/><line style="stroke:#000000;stroke-width:1.0;" x1="858" x2="858" y1="19" y2="198.2656"/><line style="stroke:#000000;stroke-width:1.0;" x1="982" x2="982" y1="19" y2="198.2656"/><line style="stroke:#000000;stroke-width:1.0;" x1="1243" x2="1243" y1="19" y2="198.2656"/><!--cluster SYSAD-xxx Software--><g id="cluster_SYSAD-xxx Software"><path d="M8.5,224.2656 L149.5,224.2656 A3.75,3.75 0 0 1 152,226.7656 L159,244.2344 L2010.5,244.2344 A2.5,2.5 0 0 1 2013,246.7344 L2013,925.5156 A2.5,2.5 0 0 1 2010.5,928.0156 L8.5,928.0156 A2.5,2.5 0 0 1 6,925.5156 L6,226.7656 A2.5,2.5 0 0 1 8.5,224.2656 " fill="#9370DB" style="stroke:#000000;stroke-width:1.5;"/><line style="stroke:#000000;stroke-width:1.5;" x1="6" x2="159" y1="244.2344" y2="244.2344"/><text fill="#000000" font-family="Arial" font-size="12" font-weight="bold" lengthAdjust="spacing" textLength="140" x="10" y="237.4043">SYSAD-xxx Software</text></g><!--cluster SWC--><g id="cluster_SWC"><path d="M40.5,272.2656 L73.5,272.2656 A3.75,3.75 0 0 1 76,274.7656 L83,292.2344 L605.5,292.2344 A2.5,2.5 0 0 1 608,294.7344 L608,773.5756 A2.5,2.5 0 0 1 605.5,776.0756 L40.5,776.0756 A2.5,2.5 0 0 1 38,773.5756 L38,274.7656 A2.5,2.5 0 0 1 40.5,272.2656 " fill="#FEE599" style="stroke:#000000;stroke-width:1.5;"/><line style="stroke:#000000;stroke-width:1.5;" x1="38" x2="83" y1="292.2344" y2="292.2344"/><text fill="#000000" font-family="Arial" font-size="12" font-weight="bold" lengthAdjust="spacing" textLength="32" x="42" y="285.4043">SWC</text></g><!--cluster SWAD-001 Application--><g id="cluster_SWAD-001 Application"><path d="M72.5,320.2656 L227.5,320.2656 A3.75,3.75 0 0 1 230,322.7656 L237,340.2344 L565.5,340.2344 A2.5,2.5 0 0 1 568,342.7344 L568,741.5756 A2.5,2.5 0 0 1 565.5,744.0756 L72.5,744.0756 A2.5,2.5 0 0 1 70,741.5756 L70,322.7656 A2.5,2.5 0 0 1 72.5,320.2656 " fill="#E0FFFF" style="stroke:#000000;stroke-width:1.5;"/><line style="stroke:#000000;stroke-width:1.5;" x1="70" x2="237" y1="340.2344" y2="340.2344"/><text fill="#000000" font-family="Arial" font-size="12" font-weight="bold" lengthAdjust="spacing" textLength="154" x="74" y="333.4043">SWAD-001 Application</text></g><!--cluster BSW--><g id="cluster_BSW"><path d="M650.5,424.2056 L683.5,424.2056 A3.75,3.75 0 0 1 686,426.7056 L693,444.1744 L1543.5,444.1744 A2.5,2.5 0 0 1 1546,446.6744 L1546,773.5756 A2.5,2.5 0 0 1 1543.5,776.0756 L650.5,776.0756 A2.5,2.5 0 0 1 648,773.5756 L648,426.7056 A2.5,2.5 0 0 1 650.5,424.2056 " fill="#FEE599" style="stroke:#000000;stroke-width:1.5;"/><line style="stroke:#000000;stroke-width:1.5;" x1="648" x2="693" y1="444.1744" y2="444.1744"/><text fill="#000000" font-family="Arial" font-size="12" font-weight="bold" lengthAdjust="spacing" textLength="32" x="652" y="437.3443">BSW</text></g><!--cluster Service--><g id="cluster_Service"><path d="M682.5,472.2056 L809.5,472.2056 A3.75,3.75 0 0 1 812,474.7056 L819,492.1744 L968.5,492.1744 A2.5,2.5 0 0 1 971,494.6744 L971,741.5756 A2.5,2.5 0 0 1 968.5,744.0756 L682.5,744.0756 A2.5,2.5 0 0 1 680,741.5756 L680,474.7056 A2.5,2.5 0 0 1 682.5,472.2056 " fill="#E0FFFF" style="stroke:#000000;stroke-width:1.5;"/><line style="stroke:#000000;stroke-width:1.5;" x1="680" x2="819" y1="492.1744" y2="492.1744"/><text fill="#000000" font-family="Arial" font-size="12" font-weight="bold" lengthAdjust="spacing" textLength="126" x="684" y="485.3443">SWAD-002 Service</text></g><!--cluster HAL--><g id="cluster_HAL"><path d="M997.5,472.2056 L1100.5,472.2056 A3.75,3.75 0 0 1 1103,474.7056 L1110,492.1744 L1315.5,492.1744 A2.5,2.5 0 0 1 1318,494.6744 L1318,741.5756 A2.5,2.5 0 0 1 1315.5,744.0756 L997.5,744.0756 A2.5,2.5 0 0 1 995,741.5756 L995,474.7056 A2.5,2.5 0 0 1 997.5,472.2056 " fill="#E0FFFF" style="stroke:#000000;stroke-width:1.5;"/><line style="stroke:#000000;stroke-width:1.5;" x1="995" x2="1110" y1="492.1744" y2="492.1744"/><text fill="#000000" font-family="Arial" font-size="12" font-weight="bold" lengthAdjust="spacing" textLength="102" x="999" y="485.3443">SWAD-003 HAL</text></g><!--cluster OS--><g id="cluster_OS"><path d="M1344.5,472.2056 L1440.5,472.2056 A3.75,3.75 0 0 1 1443,474.7056 L1450,492.1744 L1503.5,492.1744 A2.5,2.5 0 0 1 1506,494.6744 L1506,565.6356 A2.5,2.5 0 0 1 1503.5,568.1356 L1344.5,568.1356 A2.5,2.5 0 0 1 1342,565.6356 L1342,474.7056 A2.5,2.5 0 0 1 1344.5,472.2056 " fill="#E0FFFF" style="stroke:#000000;stroke-width:1.5;"/><line style="stroke:#000000;stroke-width:1.5;" x1="1342" x2="1450" y1="492.1744" y2="492.1744"/><text fill="#000000" font-family="Arial" font-size="12" font-weight="bold" lengthAdjust="spacing" textLength="95" x="1346" y="485.3443">SWAD-004 OS</text></g><!--cluster MCAL--><g id="cluster_MCAL"><path d="M1588.5,600.1356 L1627.5,600.1356 A3.75,3.75 0 0 1 1630,602.6356 L1637,620.1044 L1978.5,620.1044 A2.5,2.5 0 0 1 1981,622.6044 L1981,893.5156 A2.5,2.5 0 0 1 1978.5,896.0156 L1588.5,896.0156 A2.5,2.5 0 0 1 1586,893.5156 L1586,602.6356 A2.5,2.5 0 0 1 1588.5,600.1356 " fill="#FEE599" style="stroke:#000000;stroke-width:1.5;"/><line style="stroke:#000000;stroke-width:1.5;" x1="1586" x2="1637" y1="620.1044" y2="620.1044"/><text fill="#000000" font-family="Arial" font-size="12" font-weight="bold" lengthAdjust="spacing" textLength="38" x="1590" y="613.2743">MCAL</text></g><!--cluster Drivers--><g id="cluster_Drivers"><path d="M1620.5,648.1356 L1746.5,648.1356 A3.75,3.75 0 0 1 1749,650.6356 L1756,668.1044 L1938.5,668.1044 A2.5,2.5 0 0 1 1941,670.6044 L1941,861.5156 A2.5,2.5 0 0 1 1938.5,864.0156 L1620.5,864.0156 A2.5,2.5 0 0 1 1618,861.5156 L1618,650.6356 A2.5,2.5 0 0 1 1620.5,648.1356 " fill="#E0FFFF" style="stroke:#000000;stroke-width:1.5;"/><line style="stroke:#000000;stroke-width:1.5;" x1="1618" x2="1756" y1="668.1044" y2="668.1044"/><text fill="#000000" font-family="Arial" font-size="12" font-weight="bold" lengthAdjust="spacing" textLength="125" x="1622" y="661.2743">SWAD-005 Drivers</text></g><!--entity Main--><g id="elem_Main"><rect fill="#E2EFD9" height="47.9375" rx="2.5" ry="2.5" style="stroke:#000000;stroke-width:0.5;" width="112" x="86" y="352.2656"/><text fill="#000000" font-family="Arial" font-size="12" lengthAdjust="spacing" textLength="92" x="96" y="373.4043">SWAD-001-001</text><text fill="#000000" font-family="Arial" font-size="12" lengthAdjust="spacing" textLength="29" x="96" y="387.373">Main</text></g><!--entity AppsInit--><g id="elem_AppsInit"><rect fill="#E2EFD9" height="47.9375" rx="2.5" ry="2.5" style="stroke:#000000;stroke-width:0.5;" width="128" x="233" y="352.2656"/><text fill="#000000" font-family="Arial" font-size="12" lengthAdjust="spacing" textLength="92" x="243" y="373.4043">SWAD-001-002</text><text fill="#000000" font-family="Arial" font-size="12" lengthAdjust="spacing" textLength="108" x="243" y="387.373">APPs Initialization</text></g><!--entity PinIOSensing--><g id="elem_PinIOSensing"><rect fill="#E2EFD9" height="47.9375" rx="2.5" ry="2.5" style="stroke:#000000;stroke-width:0.5;" width="112" x="396" y="352.2656"/><text fill="#000000" font-family="Arial" font-size="12" lengthAdjust="spacing" textLength="92" x="406" y="373.4043">SWAD-001-003</text><text fill="#000000" font-family="Arial" font-size="12" lengthAdjust="spacing" textLength="92" x="406" y="387.373">PinIOs Sensing</text></g><!--entity StateMachine--><g id="elem_StateMachine"><rect fill="#E2EFD9" height="47.9375" rx="2.5" ry="2.5" style="stroke:#000000;stroke-width:0.5;" width="112" x="86" y="504.2056"/><text fill="#000000" font-family="Arial" font-size="12" lengthAdjust="spacing" textLength="92" x="96" y="525.3443">SWAD-001-004</text><text fill="#000000" font-family="Arial" font-size="12" lengthAdjust="spacing" textLength="90" x="96" y="539.313">State Machine</text></g><!--entity PowerManagement--><g id="elem_PowerManagement"><rect fill="#E2EFD9" height="47.9375" rx="2.5" ry="2.5" style="stroke:#000000;stroke-width:0.5;" width="144" x="233" y="504.2056"/><text fill="#000000" font-family="Arial" font-size="12" lengthAdjust="spacing" textLength="92" x="243" y="525.3443">SWAD-001-005</text><text fill="#000000" font-family="Arial" font-size="12" lengthAdjust="spacing" textLength="124" x="243" y="539.313">Power Management</text></g><!--entity TaskSchedule--><g id="elem_TaskSchedule"><rect fill="#E2EFD9" height="47.9375" rx="2.5" ry="2.5" style="stroke:#000000;stroke-width:0.5;" width="139" x="412.5" y="504.2056"/><text fill="#000000" font-family="Arial" font-size="12" lengthAdjust="spacing" textLength="92" x="422.5" y="525.3443">SWAD-001-006</text><text fill="#000000" font-family="Arial" font-size="12" lengthAdjust="spacing" textLength="119" x="422.5" y="539.313">Task and Schedule</text></g><!--entity TasksConfig--><g id="elem_TasksConfig"><rect fill="#E2EFD9" height="47.9375" rx="2.5" ry="2.5" style="stroke:#000000;stroke-width:0.5;" width="112" x="86" y="680.1356"/><text fill="#000000" font-family="Arial" font-size="12" lengthAdjust="spacing" textLength="92" x="96" y="701.2743">SWAD-001-007</text><text fill="#000000" font-family="Arial" font-size="12" lengthAdjust="spacing" textLength="79" x="96" y="715.243">Tasks Config</text></g><!--entity ClockSourceConfig--><g id="elem_ClockSourceConfig"><rect fill="#E2EFD9" height="47.9375" rx="2.5" ry="2.5" style="stroke:#000000;stroke-width:0.5;" width="144" x="233" y="680.1356"/><text fill="#000000" font-family="Arial" font-size="12" lengthAdjust="spacing" textLength="92" x="243" y="701.2743">SWAD-001-008</text><text fill="#000000" font-family="Arial" font-size="12" lengthAdjust="spacing" textLength="124" x="243" y="715.243">Clock Source Config</text></g><!--entity UDS--><g id="elem_UDS"><rect fill="#E2EFD9" height="47.9375" rx="2.5" ry="2.5" style="stroke:#000000;stroke-width:0.5;" width="112" x="696" y="504.2056"/><text fill="#000000" font-family="Arial" font-size="12" lengthAdjust="spacing" textLength="92" x="706" y="525.3443">SWAD-002-001</text><text fill="#000000" font-family="Arial" font-size="12" lengthAdjust="spacing" textLength="26" x="706" y="539.313">UDS</text></g><!--entity FuSa--><g id="elem_FuSa"><rect fill="#E2EFD9" height="47.9375" rx="2.5" ry="2.5" style="stroke:#000000;stroke-width:0.5;" width="112" x="843" y="504.2056"/><text fill="#000000" font-family="Arial" font-size="12" lengthAdjust="spacing" textLength="92" x="853" y="525.3443">SWAD-002-002</text><text fill="#000000" font-family="Arial" font-size="12" lengthAdjust="spacing" textLength="31" x="853" y="539.313">FuSa</text></g><!--entity Security--><g id="elem_Security"><rect fill="#E2EFD9" height="47.9375" rx="2.5" ry="2.5" style="stroke:#000000;stroke-width:0.5;" width="112" x="696" y="680.1356"/><text fill="#000000" font-family="Arial" font-size="12" lengthAdjust="spacing" textLength="92" x="706" y="701.2743">SWAD-002-003</text><text fill="#000000" font-family="Arial" font-size="12" lengthAdjust="spacing" textLength="50" x="706" y="715.243">Security</text></g><!--entity HAL_ClockSourceConfig--><g id="elem_HAL_ClockSourceConfig"><rect fill="#E2EFD9" height="47.9375" rx="2.5" ry="2.5" style="stroke:#000000;stroke-width:0.5;" width="144" x="1011" y="504.2056"/><text fill="#000000" font-family="Arial" font-size="12" lengthAdjust="spacing" textLength="92" x="1021" y="525.3443">SWAD-003-001</text><text fill="#000000" font-family="Arial" font-size="12" lengthAdjust="spacing" textLength="124" x="1021" y="539.313">Clock Source Config</text></g><!--entity HAL_PinIOSensing--><g id="elem_HAL_PinIOSensing"><rect fill="#E2EFD9" height="47.9375" rx="2.5" ry="2.5" style="stroke:#000000;stroke-width:0.5;" width="112" x="1190" y="504.2056"/><text fill="#000000" font-family="Arial" font-size="12" lengthAdjust="spacing" textLength="92" x="1200" y="525.3443">SWAD-003-002</text><text fill="#000000" font-family="Arial" font-size="12" lengthAdjust="spacing" textLength="92" x="1200" y="539.313">PinIOs Sensing</text></g><!--entity HAL_PowerConfig--><g id="elem_HAL_PowerConfig"><rect fill="#E2EFD9" height="47.9375" rx="2.5" ry="2.5" style="stroke:#000000;stroke-width:0.5;" width="112" x="1027" y="680.1356"/><text fill="#000000" font-family="Arial" font-size="12" lengthAdjust="spacing" textLength="92" x="1037" y="701.2743">SWAD-003-003</text><text fill="#000000" font-family="Arial" font-size="12" lengthAdjust="spacing" textLength="81" x="1037" y="715.243">Power Config</text></g><!--entity freeRTOS--><g id="elem_freeRTOS"><rect fill="#E2EFD9" height="47.9375" rx="2.5" ry="2.5" style="stroke:#000000;stroke-width:0.5;" width="132" x="1358" y="504.2056"/><text fill="#000000" font-family="Arial" font-size="12" lengthAdjust="spacing" textLength="92" x="1368" y="525.3443">SWAD-004-001</text><text fill="#000000" font-family="Arial" font-size="12" lengthAdjust="spacing" textLength="112" x="1368" y="539.313">freeRTOS Sources</text></g><!--entity MCAL_ClockSourceConfig--><g id="elem_MCAL_ClockSourceConfig"><rect fill="#E2EFD9" height="47.9375" rx="2.5" ry="2.5" style="stroke:#000000;stroke-width:0.5;" width="144" x="1634" y="680.1356"/><text fill="#000000" font-family="Arial" font-size="12" lengthAdjust="spacing" textLength="92" x="1644" y="701.2743">SWAD-005-001</text><text fill="#000000" font-family="Arial" font-size="12" lengthAdjust="spacing" textLength="124" x="1644" y="715.243">Clock Source Config</text></g><!--entity MCAL_PinIOSensing--><g id="elem_MCAL_PinIOSensing"><rect fill="#E2EFD9" height="47.9375" rx="2.5" ry="2.5" style="stroke:#000000;stroke-width:0.5;" width="112" x="1813" y="680.1356"/><text fill="#000000" font-family="Arial" font-size="12" lengthAdjust="spacing" textLength="92" x="1823" y="701.2743">SWAD-005-002</text><text fill="#000000" font-family="Arial" font-size="12" lengthAdjust="spacing" textLength="92" x="1823" y="715.243">PinIOs Sensing</text></g><!--entity MCAL_PowerConfig--><g id="elem_MCAL_PowerConfig"><rect fill="#E2EFD9" height="47.9375" rx="2.5" ry="2.5" style="stroke:#000000;stroke-width:0.5;" width="112" x="1650" y="800.0756"/><text fill="#000000" font-family="Arial" font-size="12" lengthAdjust="spacing" textLength="92" x="1660" y="821.2143">SWAD-005-003</text><text fill="#000000" font-family="Arial" font-size="12" lengthAdjust="spacing" textLength="81" x="1660" y="835.183">Power Config</text></g><!--entity Hardware--><g id="elem_Hardware"><rect fill="#A0522D" height="33.9688" rx="2.5" ry="2.5" style="stroke:#000000;stroke-width:0.5;" width="80" x="2029" y="807.0656"/><text fill="#000000" font-family="Arial" font-size="12" lengthAdjust="spacing" textLength="60" x="2039" y="828.2043">Hardware</text></g><!--link SWC to BSW--><g id="link_SWC_BSW"><path d="M614.4729,377.2433 C615.2562,377.2439 611.2258,377.2411 612.0998,377.242 C619.092,377.2488 628.9617,377.2628 641.305,377.2916 C665.9918,377.3493 700.5733,377.4664 741.8184,377.7041 C824.3087,378.1794 933.4537,379.1369 1043.405,381.0656 C1263.3075,384.9231 1486.435,392.6656 1506,408.2056 C1511.2763,412.3944 1515.7386,417.3534 1519.5074,422.8298 C1519.743,423.1721 1516.6543,418.5196 1516.8845,418.8659 " fill="none" id="SWC-BSW" style="stroke:#181818;stroke-width:1.0;"/><polygon fill="#181818" points="608.4729,377.2389,617.4729,381.2389,613.4729,377.2389,617.4729,373.2389,608.4729,377.2389" style="stroke:#181818;stroke-width:1.0;"/><polygon fill="#181818" points="1520.206,423.8626,1518.5549,414.1532,1517.4381,419.6987,1511.8926,418.5818,1520.206,423.8626" style="stroke:#181818;stroke-width:1.0;"/></g><!--link BSW to MCAL--><g id="link_BSW_MCAL"><path d="M1552.2242,529.0785 C1554.13,529.0706 1551.6792,529.0885 1554.0946,529.0869 C1563.7561,529.0805 1577.3513,529.1414 1593.7308,529.4016 C1626.4897,529.9219 1670.3856,531.2394 1716.2238,534.4106 C1807.9,540.7531 1907.345,554.5106 1941,584.1356 C1946.0575,588.5881 1950.3548,593.7462 1954.0025,599.3689 C1954.1165,599.5446 1951.0018,594.6632 1951.1145,594.8398 " fill="none" id="BSW-MCAL" style="stroke:#181818;stroke-width:1.0;"/><polygon fill="#181818" points="1546.2243,529.1085,1555.2442,533.0635,1551.2243,529.0835,1555.2042,525.0636,1546.2243,529.1085" style="stroke:#181818;stroke-width:1.0;"/><polygon fill="#181818" points="1954.3426,599.8974,1952.8721,590.1589,1951.6525,595.6828,1946.1287,594.4631,1954.3426,599.8974" style="stroke:#181818;stroke-width:1.0;"/></g><!--link MCAL to Hardware--><g id="link_MCAL_Hardware"><path d="M1984.9683,719.8149 C1990.7931,726.971 1996.9219,734.5 2005.4888,745.0244 C2022.6225,766.0731 2038.9226,786.097 2051.8426,801.972 " fill="none" id="MCAL-Hardware" style="stroke:#181818;stroke-width:1.0;"/><polygon fill="#181818" points="1981.1807,715.1616,1983.7599,724.6667,1984.337,719.0394,1989.9644,719.6165,1981.1807,715.1616" style="stroke:#181818;stroke-width:1.0;"/><polygon fill="#181818" points="2055.63,806.6256,2053.0513,797.1203,2052.4739,802.7476,2046.8466,802.1701,2055.63,806.6256" style="stroke:#181818;stroke-width:1.0;"/></g><!--SRC=[dLRRJkCm47ttLupWeRiFI2Ljjx02f90q0ebk4Ib2ArLQcTGjtgPsvJX0sVBlEuxT6oAGOYaNZpt7upbddDGEJ8C-lKyPX2nB59zfBWKOCwdrxl-oH4CWKwaoY9dMN8n9Dk5YHXMTmf2DQ9xgI0hzYquP-8hJzFtncBymEFJ8ngX2R2h6kF8_0jZEQJ8PAvcBOR4Wx1-rWqxasp6fXamvUxrev9MGb8sP68AMCx8u1HSkDkoueAks1Ld01LN39wgOwPxSOpG_z_rwo_F2iue0yJpJR6gx3k2uqQw7vrK1hkYSATW2Y3gTrl5nLO10JcTICA7N09rwXAqgG5SEyvHjHT3nEb5OEO9RmJLiRw6DwuVDgW1zBkPl0A8eg0SLarZpbP9F4EKYCKeskh2MzPpJBQblyYTJFeGhBXXyEpZxZaO8fQXfb6g6QSqOFD8qPyNSK6hDLfFDx0NSR4zpkAXGgrD2PhWTEcQm5_-E_V3W-VaPrnnf8xezS5fnrR2UUXVWc9M16tipZaZr-Y7uirdA4sesXGwMzWq7qzObjt8prq1qAKSdce5v0KTv1LTl8FphwmmkaNMiVVxYbaSa32SpvXtG6WDnpSLbpvmr8iEpfW0gJCwm0rXp869DDSCj9G_8Ke5LM9nX1wmM1YQVi3IxL63IfrXWDZHZNDjsGFmn47sQJO3YyHKd3ynKNG5fh4l33dXjYvVX2I16VBo2ocn_1wIZWGXIcKnGcRbAs2PWORVc4jXNOk_R4ZwFxwf8s4FQrIDF75NslRAIFQlasp0ktF5PSTEUrN6KnxJmD2yxkA9eOvRaYkkvYzjstibDwSuRSE5V5TxuhBpZXjrn6Li8zUTpnigXlNUhqQ1-eI8RhhoBAdeJP64i5LHfqfhGirJtuiefQzgKZHHZDttqiwd92fYLiPgeku6Xx7DLjo1K_94fkuXxhnnmwsEEJH1V9hbLId81-mMMMoKiMxmFQRPtJF86wlA7p2fb-NVcVie8mIyZdE2d5_1y8NZPZbcBc9ljBjt-0m00]--></g></svg>