<svg xmlns="http://www.w3.org/2000/svg" xmlns:xlink="http://www.w3.org/1999/xlink" contentStyleType="text/css" height="879px" preserveAspectRatio="none" style="width:2122px;height:879px;background:#FFFFFF;" version="1.1" viewBox="0 0 2122 879" width="2122px" zoomAndPan="magnify"><defs><filter height="1" id="b7pa7n25ef2ss0" width="1" x="0" y="0"><feFlood flood-color="#A0522D" result="flood"/><feComposite in="SourceGraphic" in2="flood" operator="over"/></filter><filter height="1" id="b7pa7n25ef2ss1" width="1" x="0" y="0"><feFlood flood-color="#9370DB" result="flood"/><feComposite in="SourceGraphic" in2="flood" operator="over"/></filter><filter height="1" id="b7pa7n25ef2ss2" width="1" x="0" y="0"><feFlood flood-color="#FEE599" result="flood"/><feComposite in="SourceGraphic" in2="flood" operator="over"/></filter><filter height="1" id="b7pa7n25ef2ss3" width="1" x="0" y="0"><feFlood flood-color="#E0FFFF" result="flood"/><feComposite in="SourceGraphic" in2="flood" operator="over"/></filter><filter height="1" id="b7pa7n25ef2ss4" width="1" x="0" y="0"><feFlood flood-color="#E2EFD9" result="flood"/><feComposite in="SourceGraphic" in2="flood" operator="over"/></filter><filter height="1" id="b7pa7n25ef2ss5" width="1" x="0" y="0"><feFlood flood-color="#7FFFD4" result="flood"/><feComposite in="SourceGraphic" in2="flood" operator="over"/></filter><filter height="1" id="b7pa7n25ef2ss6" width="1" x="0" y="0"><feFlood flood-color="#FFC0CB" result="flood"/><feComposite in="SourceGraphic" in2="flood" operator="over"/></filter></defs><g><rect fill="#DDDDDD" height="144.375" id="_legend" rx="7.5" ry="7.5" style="stroke:#000000;stroke-width:1.0;" width="288.6396" x="909.6953" y="12"/><text fill="#000000" font-family="Arial" font-size="14" font-weight="bold" lengthAdjust="spacing" textLength="51.208" x="953.6875" y="31.9951">Object</text><text fill="#000000" font-family="Arial" font-size="14" font-weight="bold" lengthAdjust="spacing" textLength="49.5469" x="1086.7422" y="31.9951">Colors</text><text fill="#000000" font-family="Arial" font-size="14" lengthAdjust="spacing" textLength="105.082" x="919.1455" y="48.292">Microcontroller</text><text fill="#000000" filter="url(#b7pa7n25ef2ss0)" font-family="Arial" font-size="14" lengthAdjust="spacing" textLength="160.207" x="1033.1279" y="48.292">&#160;&#160;&#160;&#160;&#160;&#160;&#160;&#160;&#160;&#160;&#160;&#160;&#160;&#160;&#160;&#160;&#160;&#160;&#160;&#160;&#160;&#160;&#160;&#160;&#160;&#160;&#160;&#160;&#160;&#160;&#160;&#160;&#160;&#160;&#160;&#160;</text><text fill="#000000" font-family="Arial" font-size="14" lengthAdjust="spacing" textLength="52.2061" x="919.1455" y="64.5889">System</text><text fill="#000000" filter="url(#b7pa7n25ef2ss1)" font-family="Arial" font-size="14" lengthAdjust="spacing" textLength="160.207" x="1033.1279" y="64.5889">&#160;&#160;&#160;&#160;&#160;&#160;&#160;&#160;&#160;&#160;&#160;&#160;&#160;&#160;&#160;&#160;&#160;&#160;&#160;&#160;&#160;&#160;&#160;&#160;&#160;&#160;&#160;&#160;&#160;&#160;&#160;&#160;&#160;&#160;&#160;&#160;</text><text fill="#000000" font-family="Arial" font-size="14" lengthAdjust="spacing" textLength="39.0332" x="919.1455" y="80.8857">Layer</text><text fill="#000000" filter="url(#b7pa7n25ef2ss2)" font-family="Arial" font-size="14" lengthAdjust="spacing" textLength="160.207" x="1033.1279" y="80.8857">&#160;&#160;&#160;&#160;&#160;&#160;&#160;&#160;&#160;&#160;&#160;&#160;&#160;&#160;&#160;&#160;&#160;&#160;&#160;&#160;&#160;&#160;&#160;&#160;&#160;&#160;&#160;&#160;&#160;&#160;&#160;&#160;&#160;&#160;&#160;&#160;</text><text fill="#000000" font-family="Arial" font-size="14" lengthAdjust="spacing" textLength="81.2793" x="919.1455" y="97.1826">Component</text><text fill="#000000" filter="url(#b7pa7n25ef2ss3)" font-family="Arial" font-size="14" lengthAdjust="spacing" textLength="160.207" x="1033.1279" y="97.1826">&#160;&#160;&#160;&#160;&#160;&#160;&#160;&#160;&#160;&#160;&#160;&#160;&#160;&#160;&#160;&#160;&#160;&#160;&#160;&#160;&#160;&#160;&#160;&#160;&#160;&#160;&#160;&#160;&#160;&#160;&#160;&#160;&#160;&#160;&#160;&#160;</text><text fill="#000000" font-family="Arial" font-size="14" lengthAdjust="spacing" textLength="50.9072" x="919.1455" y="113.4795">Module</text><text fill="#000000" filter="url(#b7pa7n25ef2ss4)" font-family="Arial" font-size="14" lengthAdjust="spacing" textLength="160.207" x="1033.1279" y="113.4795">&#160;&#160;&#160;&#160;&#160;&#160;&#160;&#160;&#160;&#160;&#160;&#160;&#160;&#160;&#160;&#160;&#160;&#160;&#160;&#160;&#160;&#160;&#160;&#160;&#160;&#160;&#160;&#160;&#160;&#160;&#160;&#160;&#160;&#160;&#160;&#160;</text><text fill="#000000" font-family="Arial" font-size="14" lengthAdjust="spacing" textLength="28.499" x="919.1455" y="129.7764">Uint</text><text fill="#000000" filter="url(#b7pa7n25ef2ss5)" font-family="Arial" font-size="14" lengthAdjust="spacing" textLength="160.207" x="1033.1279" y="129.7764">&#160;&#160;&#160;&#160;&#160;&#160;&#160;&#160;&#160;&#160;&#160;&#160;&#160;&#160;&#160;&#160;&#160;&#160;&#160;&#160;&#160;&#160;&#160;&#160;&#160;&#160;&#160;&#160;&#160;&#160;&#160;&#160;&#160;&#160;&#160;&#160;</text><text fill="#000000" font-family="Arial" font-size="14" lengthAdjust="spacing" textLength="29.5996" x="919.1455" y="146.0732">Tiny</text><text fill="#000000" filter="url(#b7pa7n25ef2ss6)" font-family="Arial" font-size="14" lengthAdjust="spacing" textLength="160.207" x="1033.1279" y="146.0732">&#160;&#160;&#160;&#160;&#160;&#160;&#160;&#160;&#160;&#160;&#160;&#160;&#160;&#160;&#160;&#160;&#160;&#160;&#160;&#160;&#160;&#160;&#160;&#160;&#160;&#160;&#160;&#160;&#160;&#160;&#160;&#160;&#160;&#160;&#160;&#160;</text><line style="stroke:#000000;stroke-width:1.0;" x1="914.6953" x2="1193.335" y1="19" y2="19"/><line style="stroke:#000000;stroke-width:1.0;" x1="914.6953" x2="1193.335" y1="35.2969" y2="35.2969"/><line style="stroke:#000000;stroke-width:1.0;" x1="914.6953" x2="1193.335" y1="51.5938" y2="51.5938"/><line style="stroke:#000000;stroke-width:1.0;" x1="914.6953" x2="1193.335" y1="67.8906" y2="67.8906"/><line style="stroke:#000000;stroke-width:1.0;" x1="914.6953" x2="1193.335" y1="84.1875" y2="84.1875"/><line style="stroke:#000000;stroke-width:1.0;" x1="914.6953" x2="1193.335" y1="100.4844" y2="100.4844"/><line style="stroke:#000000;stroke-width:1.0;" x1="914.6953" x2="1193.335" y1="116.7813" y2="116.7813"/><line style="stroke:#000000;stroke-width:1.0;" x1="914.6953" x2="1193.335" y1="133.0781" y2="133.0781"/><line style="stroke:#000000;stroke-width:1.0;" x1="914.6953" x2="1193.335" y1="149.375" y2="149.375"/><line style="stroke:#000000;stroke-width:1.0;" x1="914.6953" x2="914.6953" y1="19" y2="149.375"/><line style="stroke:#000000;stroke-width:1.0;" x1="1033.1279" x2="1033.1279" y1="19" y2="149.375"/><line style="stroke:#000000;stroke-width:1.0;" x1="1193.335" x2="1193.335" y1="19" y2="149.375"/><!--cluster SYSAD-xxx Software--><g id="cluster_SYSAD-xxx Software"><path d="M8.5,175.375 L148.1855,175.375 A3.75,3.75 0 0 1 150.6855,177.875 L157.6855,195.3438 L1987.5,195.3438 A2.5,2.5 0 0 1 1990,197.8438 L1990,869.645 A2.5,2.5 0 0 1 1987.5,872.145 L8.5,872.145 A2.5,2.5 0 0 1 6,869.645 L6,177.875 A2.5,2.5 0 0 1 8.5,175.375 " fill="#9370DB" style="stroke:#000000;stroke-width:1.5;"/><line style="stroke:#000000;stroke-width:1.5;" x1="6" x2="157.6855" y1="195.3438" y2="195.3438"/><text fill="#000000" font-family="Arial" font-size="12" font-weight="bold" lengthAdjust="spacing" textLength="138.6855" x="10" y="188.5137">SYSAD-xxx Software</text></g><!--cluster SWC--><g id="cluster_SWC"><path d="M40.5,223.375 L72.1855,223.375 A3.75,3.75 0 0 1 74.6855,225.875 L81.6855,243.3438 L593.5,243.3438 A2.5,2.5 0 0 1 596,245.8438 L596,717.705 A2.5,2.5 0 0 1 593.5,720.205 L40.5,720.205 A2.5,2.5 0 0 1 38,717.705 L38,225.875 A2.5,2.5 0 0 1 40.5,223.375 " fill="#FEE599" style="stroke:#000000;stroke-width:1.5;"/><line style="stroke:#000000;stroke-width:1.5;" x1="38" x2="81.6855" y1="243.3438" y2="243.3438"/><text fill="#000000" font-family="Arial" font-size="12" font-weight="bold" lengthAdjust="spacing" textLength="30.6855" x="42" y="236.5137">SWC</text></g><!--cluster SWAD-001 Application--><g id="cluster_SWAD-001 Application"><path d="M72.5,271.375 L225.375,271.375 A3.75,3.75 0 0 1 227.875,273.875 L234.875,291.3438 L553.5,291.3438 A2.5,2.5 0 0 1 556,293.8438 L556,685.705 A2.5,2.5 0 0 1 553.5,688.205 L72.5,688.205 A2.5,2.5 0 0 1 70,685.705 L70,273.875 A2.5,2.5 0 0 1 72.5,271.375 " fill="#E0FFFF" style="stroke:#000000;stroke-width:1.5;"/><line style="stroke:#000000;stroke-width:1.5;" x1="70" x2="234.875" y1="291.3438" y2="291.3438"/><text fill="#000000" font-family="Arial" font-size="12" font-weight="bold" lengthAdjust="spacing" textLength="151.875" x="74" y="284.5137">SWAD-001 Application</text></g><!--cluster BSW--><g id="cluster_BSW"><path d="M638.5,375.315 L670.5254,375.315 A3.75,3.75 0 0 1 673.0254,377.815 L680.0254,395.2837 L1524.5,395.2837 A2.5,2.5 0 0 1 1527,397.7837 L1527,717.705 A2.5,2.5 0 0 1 1524.5,720.205 L638.5,720.205 A2.5,2.5 0 0 1 636,717.705 L636,377.815 A2.5,2.5 0 0 1 638.5,375.315 " fill="#FEE599" style="stroke:#000000;stroke-width:1.5;"/><line style="stroke:#000000;stroke-width:1.5;" x1="636" x2="680.0254" y1="395.2837" y2="395.2837"/><text fill="#000000" font-family="Arial" font-size="12" font-weight="bold" lengthAdjust="spacing" textLength="31.0254" x="640" y="388.4537">BSW</text></g><!--cluster Service--><g id="cluster_Service"><path d="M670.5,423.315 L796.7207,423.315 A3.75,3.75 0 0 1 799.2207,425.815 L806.2207,443.2838 L955.5,443.2838 A2.5,2.5 0 0 1 958,445.7838 L958,685.705 A2.5,2.5 0 0 1 955.5,688.205 L670.5,688.205 A2.5,2.5 0 0 1 668,685.705 L668,425.815 A2.5,2.5 0 0 1 670.5,423.315 " fill="#E0FFFF" style="stroke:#000000;stroke-width:1.5;"/><line style="stroke:#000000;stroke-width:1.5;" x1="668" x2="806.2207" y1="443.2838" y2="443.2838"/><text fill="#000000" font-family="Arial" font-size="12" font-weight="bold" lengthAdjust="spacing" textLength="125.2207" x="672" y="436.4537">SWAD-002 Service</text></g><!--cluster HAL--><g id="cluster_HAL"><path d="M984.5,423.315 L1087.8105,423.315 A3.75,3.75 0 0 1 1090.3105,425.815 L1097.3105,443.2838 L1298.5,443.2838 A2.5,2.5 0 0 1 1301,445.7838 L1301,685.705 A2.5,2.5 0 0 1 1298.5,688.205 L984.5,688.205 A2.5,2.5 0 0 1 982,685.705 L982,425.815 A2.5,2.5 0 0 1 984.5,423.315 " fill="#E0FFFF" style="stroke:#000000;stroke-width:1.5;"/><line style="stroke:#000000;stroke-width:1.5;" x1="982" x2="1097.3105" y1="443.2838" y2="443.2838"/><text fill="#000000" font-family="Arial" font-size="12" font-weight="bold" lengthAdjust="spacing" textLength="102.3105" x="986" y="436.4537">SWAD-003 HAL</text></g><!--cluster OS--><g id="cluster_OS"><path d="M1327.5,430.305 L1422.6777,430.305 A3.75,3.75 0 0 1 1425.1777,432.805 L1432.1777,450.2738 L1484.5,450.2738 A2.5,2.5 0 0 1 1487,452.7738 L1487,509.765 A2.5,2.5 0 0 1 1484.5,512.265 L1327.5,512.265 A2.5,2.5 0 0 1 1325,509.765 L1325,432.805 A2.5,2.5 0 0 1 1327.5,430.305 " fill="#E0FFFF" style="stroke:#000000;stroke-width:1.5;"/><line style="stroke:#000000;stroke-width:1.5;" x1="1325" x2="1432.1777" y1="450.2738" y2="450.2738"/><text fill="#000000" font-family="Arial" font-size="12" font-weight="bold" lengthAdjust="spacing" textLength="94.1777" x="1329" y="443.4437">SWAD-004 OS</text></g><!--cluster MCAL--><g id="cluster_MCAL"><path d="M1569.5,544.265 L1608.1816,544.265 A3.75,3.75 0 0 1 1610.6816,546.765 L1617.6816,564.2338 L1955.5,564.2338 A2.5,2.5 0 0 1 1958,566.7338 L1958,837.645 A2.5,2.5 0 0 1 1955.5,840.145 L1569.5,840.145 A2.5,2.5 0 0 1 1567,837.645 L1567,546.765 A2.5,2.5 0 0 1 1569.5,544.265 " fill="#FEE599" style="stroke:#000000;stroke-width:1.5;"/><line style="stroke:#000000;stroke-width:1.5;" x1="1567" x2="1617.6816" y1="564.2338" y2="564.2338"/><text fill="#000000" font-family="Arial" font-size="12" font-weight="bold" lengthAdjust="spacing" textLength="37.6816" x="1571" y="557.4037">MCAL</text></g><!--cluster Drivers--><g id="cluster_Drivers"><path d="M1601.5,592.265 L1726.8477,592.265 A3.75,3.75 0 0 1 1729.3477,594.765 L1736.3477,612.2338 L1915.5,612.2338 A2.5,2.5 0 0 1 1918,614.7338 L1918,805.645 A2.5,2.5 0 0 1 1915.5,808.145 L1601.5,808.145 A2.5,2.5 0 0 1 1599,805.645 L1599,594.765 A2.5,2.5 0 0 1 1601.5,592.265 " fill="#E0FFFF" style="stroke:#000000;stroke-width:1.5;"/><line style="stroke:#000000;stroke-width:1.5;" x1="1599" x2="1736.3477" y1="612.2338" y2="612.2338"/><text fill="#000000" font-family="Arial" font-size="12" font-weight="bold" lengthAdjust="spacing" textLength="124.3477" x="1603" y="605.4037">SWAD-005 Drivers</text></g><!--entity Main--><g id="elem_Main"><rect fill="#E2EFD9" height="47.9375" rx="2.5" ry="2.5" style="stroke:#000000;stroke-width:0.5;" width="111.4004" x="86.3" y="303.375"/><text fill="#000000" font-family="Arial" font-size="12" lengthAdjust="spacing" textLength="91.4004" x="96.3" y="324.5137">SWAD-001-001</text><text fill="#000000" font-family="Arial" font-size="12" lengthAdjust="spacing" textLength="28.6465" x="96.3" y="338.4824">Main</text></g><!--entity AppsInit--><g id="elem_AppsInit"><rect fill="#E2EFD9" height="47.9375" rx="2.5" ry="2.5" style="stroke:#000000;stroke-width:0.5;" width="125.9258" x="233.04" y="303.375"/><text fill="#000000" font-family="Arial" font-size="12" lengthAdjust="spacing" textLength="91.4004" x="243.04" y="324.5137">SWAD-001-002</text><text fill="#000000" font-family="Arial" font-size="12" lengthAdjust="spacing" textLength="105.9258" x="243.04" y="338.4824">APPs Initialization</text></g><!--entity PinIOSensing--><g id="elem_PinIOSensing"><rect fill="#E2EFD9" height="47.9375" rx="2.5" ry="2.5" style="stroke:#000000;stroke-width:0.5;" width="111.4004" x="394.3" y="303.375"/><text fill="#000000" font-family="Arial" font-size="12" lengthAdjust="spacing" textLength="91.4004" x="404.3" y="324.5137">SWAD-001-003</text><text fill="#000000" font-family="Arial" font-size="12" lengthAdjust="spacing" textLength="88.6406" x="404.3" y="338.4824">PinIOs Sensing</text></g><!--entity StateMachine--><g id="elem_StateMachine"><rect fill="#E2EFD9" height="47.9375" rx="2.5" ry="2.5" style="stroke:#000000;stroke-width:0.5;" width="111.4004" x="86.3" y="455.315"/><text fill="#000000" font-family="Arial" font-size="12" lengthAdjust="spacing" textLength="91.4004" x="96.3" y="476.4537">SWAD-001-004</text><text fill="#000000" font-family="Arial" font-size="12" lengthAdjust="spacing" textLength="85.8105" x="96.3" y="490.4224">State Machine</text></g><!--entity PowerManagement--><g id="elem_PowerManagement"><rect fill="#E2EFD9" height="47.9375" rx="2.5" ry="2.5" style="stroke:#000000;stroke-width:0.5;" width="139.5723" x="232.21" y="455.315"/><text fill="#000000" font-family="Arial" font-size="12" lengthAdjust="spacing" textLength="91.4004" x="242.21" y="476.4537">SWAD-001-005</text><text fill="#000000" font-family="Arial" font-size="12" lengthAdjust="spacing" textLength="119.5723" x="242.21" y="490.4224">Power Management</text></g><!--entity TaskSchedule--><g id="elem_TaskSchedule"><rect fill="#E2EFD9" height="47.9375" rx="2.5" ry="2.5" style="stroke:#000000;stroke-width:0.5;" width="133.2324" x="406.38" y="455.315"/><text fill="#000000" font-family="Arial" font-size="12" lengthAdjust="spacing" textLength="91.4004" x="416.38" y="476.4537">SWAD-001-006</text><text fill="#000000" font-family="Arial" font-size="12" lengthAdjust="spacing" textLength="113.2324" x="416.38" y="490.4224">Task and Schedule</text></g><!--entity TasksConfig--><g id="elem_TasksConfig"><rect fill="#E2EFD9" height="47.9375" rx="2.5" ry="2.5" style="stroke:#000000;stroke-width:0.5;" width="111.4004" x="86.3" y="624.265"/><text fill="#000000" font-family="Arial" font-size="12" lengthAdjust="spacing" textLength="91.4004" x="96.3" y="645.4037">SWAD-001-007</text><text fill="#000000" font-family="Arial" font-size="12" lengthAdjust="spacing" textLength="76.4531" x="96.3" y="659.3724">Tasks Config</text></g><!--entity ClockSourceConfig--><g id="elem_ClockSourceConfig"><rect fill="#E2EFD9" height="47.9375" rx="2.5" ry="2.5" style="stroke:#000000;stroke-width:0.5;" width="140.2109" x="232.89" y="624.265"/><text fill="#000000" font-family="Arial" font-size="12" lengthAdjust="spacing" textLength="91.4004" x="242.89" y="645.4037">SWAD-001-008</text><text fill="#000000" font-family="Arial" font-size="12" lengthAdjust="spacing" textLength="120.2109" x="242.89" y="659.3724">Clock Source Config</text></g><!--entity UDS--><g id="elem_UDS"><rect fill="#E2EFD9" height="47.9375" rx="2.5" ry="2.5" style="stroke:#000000;stroke-width:0.5;" width="111.4004" x="684.3" y="455.315"/><text fill="#000000" font-family="Arial" font-size="12" lengthAdjust="spacing" textLength="91.4004" x="694.3" y="476.4537">SWAD-002-001</text><text fill="#000000" font-family="Arial" font-size="12" lengthAdjust="spacing" textLength="25.6406" x="694.3" y="490.4224">UDS</text></g><!--entity FuSa--><g id="elem_FuSa"><rect fill="#E2EFD9" height="47.9375" rx="2.5" ry="2.5" style="stroke:#000000;stroke-width:0.5;" width="111.4004" x="830.3" y="455.315"/><text fill="#000000" font-family="Arial" font-size="12" lengthAdjust="spacing" textLength="91.4004" x="840.3" y="476.4537">SWAD-002-002</text><text fill="#000000" font-family="Arial" font-size="12" lengthAdjust="spacing" textLength="29.4785" x="840.3" y="490.4224">FuSa</text></g><!--entity Security--><g id="elem_Security"><rect fill="#E2EFD9" height="47.9375" rx="2.5" ry="2.5" style="stroke:#000000;stroke-width:0.5;" width="111.4004" x="684.3" y="624.265"/><text fill="#000000" font-family="Arial" font-size="12" lengthAdjust="spacing" textLength="91.4004" x="694.3" y="645.4037">SWAD-002-003</text><text fill="#000000" font-family="Arial" font-size="12" lengthAdjust="spacing" textLength="49.2773" x="694.3" y="659.3724">Security</text></g><!--entity HAL_ClockSourceConfig--><g id="elem_HAL_ClockSourceConfig"><rect fill="#E2EFD9" height="47.9375" rx="2.5" ry="2.5" style="stroke:#000000;stroke-width:0.5;" width="140.2109" x="997.89" y="455.315"/><text fill="#000000" font-family="Arial" font-size="12" lengthAdjust="spacing" textLength="91.4004" x="1007.89" y="476.4537">SWAD-003-001</text><text fill="#000000" font-family="Arial" font-size="12" lengthAdjust="spacing" textLength="120.2109" x="1007.89" y="490.4224">Clock Source Config</text></g><!--entity HAL_PinIOSensing--><g id="elem_HAL_PinIOSensing"><rect fill="#E2EFD9" height="47.9375" rx="2.5" ry="2.5" style="stroke:#000000;stroke-width:0.5;" width="111.4004" x="1173.3" y="455.315"/><text fill="#000000" font-family="Arial" font-size="12" lengthAdjust="spacing" textLength="91.4004" x="1183.3" y="476.4537">SWAD-003-002</text><text fill="#000000" font-family="Arial" font-size="12" lengthAdjust="spacing" textLength="88.6406" x="1183.3" y="490.4224">PinIOs Sensing</text></g><!--entity HAL_PowerConfig--><g id="elem_HAL_PowerConfig"><rect fill="#E2EFD9" height="47.9375" rx="2.5" ry="2.5" style="stroke:#000000;stroke-width:0.5;" width="111.4004" x="1012.3" y="624.265"/><text fill="#000000" font-family="Arial" font-size="12" lengthAdjust="spacing" textLength="91.4004" x="1022.3" y="645.4037">SWAD-003-003</text><text fill="#000000" font-family="Arial" font-size="12" lengthAdjust="spacing" textLength="79.0254" x="1022.3" y="659.3724">Power Config</text></g><!--entity freeRTOS--><g id="elem_freeRTOS"><rect fill="#E2EFD9" height="33.9688" rx="2.5" ry="2.5" style="stroke:#000000;stroke-width:0.5;" width="130.3555" x="1340.82" y="462.305"/><text fill="#000000" font-family="Arial" font-size="12" lengthAdjust="spacing" textLength="110.3555" x="1350.82" y="483.4437">freeRTOS Modules</text></g><!--entity MCAL_ClockSourceConfig--><g id="elem_MCAL_ClockSourceConfig"><rect fill="#E2EFD9" height="47.9375" rx="2.5" ry="2.5" style="stroke:#000000;stroke-width:0.5;" width="140.2109" x="1614.89" y="624.265"/><text fill="#000000" font-family="Arial" font-size="12" lengthAdjust="spacing" textLength="91.4004" x="1624.89" y="645.4037">SWAD-005-001</text><text fill="#000000" font-family="Arial" font-size="12" lengthAdjust="spacing" textLength="120.2109" x="1624.89" y="659.3724">Clock Source Config</text></g><!--entity MCAL_PinIOSensing--><g id="elem_MCAL_PinIOSensing"><rect fill="#E2EFD9" height="47.9375" rx="2.5" ry="2.5" style="stroke:#000000;stroke-width:0.5;" width="111.4004" x="1790.3" y="624.265"/><text fill="#000000" font-family="Arial" font-size="12" lengthAdjust="spacing" textLength="91.4004" x="1800.3" y="645.4037">SWAD-005-002</text><text fill="#000000" font-family="Arial" font-size="12" lengthAdjust="spacing" textLength="88.6406" x="1800.3" y="659.3724">PinIOs Sensing</text></g><!--entity MCAL_PowerConfig--><g id="elem_MCAL_PowerConfig"><rect fill="#E2EFD9" height="47.9375" rx="2.5" ry="2.5" style="stroke:#000000;stroke-width:0.5;" width="111.4004" x="1629.3" y="744.205"/><text fill="#000000" font-family="Arial" font-size="12" lengthAdjust="spacing" textLength="91.4004" x="1639.3" y="765.3437">SWAD-005-003</text><text fill="#000000" font-family="Arial" font-size="12" lengthAdjust="spacing" textLength="79.0254" x="1639.3" y="779.3124">Power Config</text></g><!--entity MCU--><g id="elem_MCU"><rect fill="#A0522D" height="33.9688" rx="2.5" ry="2.5" style="stroke:#000000;stroke-width:0.5;" width="110.0703" x="2005.96" y="751.195"/><text fill="#000000" font-family="Arial" font-size="12" lengthAdjust="spacing" textLength="90.0703" x="2015.96" y="772.3337">Microcontroller</text></g><!--link SWC to BSW--><g id="link_SWC_BSW"><path d="M602.4091,328.3559 C603.1863,328.3567 599.1408,328.3529 600.008,328.354 C606.9463,328.3625 616.7398,328.3789 628.9879,328.4108 C653.484,328.4746 687.7983,328.6002 728.7247,328.8472 C810.5775,329.3413 918.8788,330.3213 1027.98,332.265 C1246.1825,336.1525 1467.585,343.895 1487,359.315 C1492.2763,363.505 1496.7386,368.4652 1500.5074,373.9425 C1500.743,374.2848 1497.6547,389.6009 1497.8849,389.9472 " fill="none" id="SWC-BSW" style="stroke:#181818;stroke-width:1.0;"/><polygon fill="#181818" points="596.4091,328.35,605.4051,332.3589,601.4091,328.3549,605.413,324.3589,596.4091,328.35" style="stroke:#181818;stroke-width:1.0;"/><polygon fill="#181818" points="1501.206,394.9443,1499.5557,385.2346,1498.4384,390.7801,1492.893,389.6628,1501.206,394.9443" style="stroke:#181818;stroke-width:1.0;"/></g><!--link BSW to MCAL--><g id="link_BSW_MCAL"><path d="M1533.1332,479.9436 C1535.0182,479.903 1532.5302,479.9644 1534.9194,479.9214 C1544.4761,479.7495 1557.9245,479.5774 1574.1283,479.5567 C1606.5359,479.5153 1649.9656,480.0794 1695.3288,482.4613 C1786.055,487.225 1884.515,499.26 1918,528.265 C1923.0925,532.6775 1927.4163,537.8055 1931.0833,543.406 C1931.1979,543.581 1928.0629,558.681 1928.1762,558.857 " fill="none" id="BSW-MCAL" style="stroke:#181818;stroke-width:1.0;"/><polygon fill="#181818" points="1527.1347,480.0779,1536.222,483.8755,1532.1335,479.966,1536.043,475.8775,1527.1347,480.0779" style="stroke:#181818;stroke-width:1.0;"/><polygon fill="#181818" points="1931.4252,563.9012,1929.9146,554.1689,1928.7177,559.6977,1923.1889,558.5008,1931.4252,563.9012" style="stroke:#181818;stroke-width:1.0;"/></g><!--link MCAL to MCU--><g id="link_MCAL_MCU"><path d="M1962.1807,662.1822 C1962.5442,662.5684 1959.0762,658.8837 1959.4596,659.291 C1960.2262,660.1055 1961.0319,660.9616 1961.8738,661.8561 C1968.6088,669.0122 1977.66,678.6294 1987.565,689.1538 C2007.375,710.2025 2026.488,730.5106 2041.428,746.3856 " fill="none" id="MCAL-MCU" style="stroke:#181818;stroke-width:1.0;"/><polygon fill="#181818" points="1958.0686,657.813,1961.324,667.1083,1961.4954,661.454,1967.1496,661.6254,1958.0686,657.813" style="stroke:#181818;stroke-width:1.0;"/><polygon fill="#181818" points="2045.54,750.755,2042.2849,741.4596,2042.1133,747.1139,2036.4591,746.9423,2045.54,750.755" style="stroke:#181818;stroke-width:1.0;"/></g><!--SRC=[dLPjJzim4FxkNt623tog55AomiIGGj9eI7H5IoiqgT9aKhTuJUt8IO4o-Eyxlz1sY432IKcSnxddx7lkaXnqjC68tkGCObPcYXSLbm8qJ0w6DtzOLa4aSwbAI5bLSJ4dvOABWYgwX2cRqLLU9L9KF-YIGQWupT-UJ_aZWqEVxCmgvAPYZf7_4a0xfzbYhkHAJ4r0s3_kHVqaj7DIJPbok6UCF1EIipaJKwXaGPw-WJEtQjWYQ6uFy4IUOC0p9JDSb99vpXI2fpSO- -j-w0M-7vz10zCywRgis7BhVjBjUV5vO_TBkjuDdlJxmSb9O-z8BWifcAWs17qlGMjCC93J5UP-u-ttaxXv-37VYTp3kF5HOzyH5-ljjfF8Yvec3SMsaXDIe3UTCzXBVwLXt7buU81KpgfxgjWUE2bSOMqVlOvmpYRQpRsQHoRFEuImA7AUKTqAw60Jk-EWRLkz6pTzJCI0SdIY9UW1kBmsSFKd8howAk52y0hRY3-wyCY4ooart8AjEn5NN5mCTTkA4jlM41d80It8ZYOYhMZ5S4lPBHVCS1d40Isu0boOlCV27r21ILzY1TkbQN2BjM3yCX4ZMYw0ufiWpMwPBcj3gT4Ne0LVp_ALs69YnkSRgjBUjs0wdeWebza2AtEbChPBQ70Brz0-4tl-luJFq-ic9UoZxEgEPqugEsvSoRwjv76S6dUyDjoqR-iuMQNKUEf12rSisfHbAyMhjLktlNaZDxKxxyBtyD9uuxNnZhjsntLg8TNlZnMhf_RVx4RD-ecExBhsDbtqQf46h2sesgGTmT1AFKm_JjbCCVPpX4_QBqXf73TWip8UH5gaZ-iuW5ZnEwPi43Tkh6hmlgfw4P-MDQYLrT1-GjUWHbVBzwwmzen9tc5zzPVZgCRW_d88mQyXd7OwPu3l58A7lT7HY3wzt8x_0G00]--></g></svg>